<svg xmlns="http://www.w3.org/2000/svg" viewBox="0 0 2166.51 373.74"><defs><style>.cls-1,.cls-3{fill:#34b233;}.cls-2{fill:#ff7900;}.cls-3{font-size:127.95px;font-family:BerlinSansFBDemi-Bold, Berlin Sans FB Demi;font-weight:700;}</style></defs><g id="Layer_2" data-name="Layer 2"><g id="Layer_1-2" data-name="Layer 1"><path class="cls-1" d="M162.47,219.22q0,45.18-38.06,77.45Q91,325.16,43.18,333a26.36,26.36,0,0,1-2.9.22q-5.12,0-22.7-31.27T0,263.73q0-2.44,3.34-3.12,32.27-7.34,42.73-12.46,23.15-11.57,23.15-34.27,0-14.48-15.14-32.27Q27.82,151.34,25.59,148A90.67,90.67,0,0,1,10.24,96.81q0-40.73,37.61-67.66Q78.57,6.91,123.3.22c1.63-.14,2.89-.22,3.78-.22q3.35,0,5.34,5.34,5.79,16.25,26.93,58.76a5.18,5.18,0,0,1,.67,2.22q0,3.8-4,3.79a45.51,45.51,0,0,1-6-.67,44.25,44.25,0,0,0-6.45-.67q-16,0-28,7.34Q101,84.57,101,99.71q0,13.58,16,33.38,28.27,35.61,29.61,37.39Q162.46,195,162.47,219.22Z"/><path class="cls-1" d="M346.74,256.39a181,181,0,0,1-1.67,20.25,182.46,182.46,0,0,0-1.66,19.92c0,4.23-.45,6.93-1.34,8.12s-3.34,2.89-7.34,5.12Q306,325.61,271.07,325.6q-64.32,0-64.31-49.18,0-14.7,1.11-44.18T209,188.06q0-9.8-11.35-9.79h-2.89a29,29,0,0,1-2.9.22q-8.46,0-8.45-6c0-2.37.18-6,.55-10.9s.56-8.53.56-10.91q0-4.68-.56-14.24t-.55-14.25q0-4.44,14.24-4.89,8-.23,8.68-4.45,1.33-8.46.89-26.71-.88-28.71-.89-27.38,0-25.81,4.9-25.81,6,0,17.13,2.67A160.24,160.24,0,0,0,245.93,39q11.34,1.56,34.27,4.23,5.57.43,5.56,3.78,0,8.91-1.44,26.93T282.87,101q0,10.9,6.45,10.91,7.8,0,23.6-.67t23.81-.67c3.26,0,4.9,1.11,4.9,3.34q0,5.11-1.12,15.36t-1.11,15.35q0,5.34.22,15.58t.22,15.58c0,3.12-2.15,4.67-6.45,4.67q-4.45,0-14.91-.33t-14.91-.33H286.88q-3.35,0-3.34,9.79v15.8q.21,10.68.22,15.8,0,18.69,4.23,25.82,6,9.57,23.59,9.57,5.57,0,15.91-2.56t14.58-2.56C345.19,251.49,346.74,253.12,346.74,256.39Z"/><path class="cls-1" d="M874,5.79q0-4.9-1.78,14.68-2.44,24.71-3.78,63.21-1.78,43.62-1.78,99.26,0,91.92,5.12,130.87c.29,2.81.44,4.6.44,5.34q0,2.44-3.34,2.89-8,1.11-59,1.11-12,0-13.8-4.67c-.3-5.64-.6-11.27-.89-16.92a6.86,6.86,0,0,0-1.78-3.56,14.49,14.49,0,0,0-3.34,2.67q-24,23.59-60.09,23.6-47,0-75.23-32.94Q627.83,260,627.83,212.1q0-48.53,26.49-79.9,28-33.39,75.67-33.38,33.6,0,52.3,21.36c2.07,2.38,3.56,3.56,4.45,3.56,1.33,0,2-1.92,2-5.78q0-17.14-.89-51.19t-.89-51q0-6.45,3.56-7.34,14.25-.68,39.17-2.67Q874.21.23,869.09.22,874,.22,874,5.79Zm-83.9,204.53a44.06,44.06,0,0,0-12.24-30.83q-12.24-13.23-29.6-13.24-18.25,0-29,13.24T708.4,211.21q0,18,10.9,30.49,11.13,13.35,28.94,13.35a38.51,38.51,0,0,0,29.82-13.35A45.43,45.43,0,0,0,790.08,210.32Z"/><path class="cls-1" d="M989.27,219.44q0,16.25.66,48.41T990.6,316c0,3.12-1.86,5-5.56,5.56q-7.57,1.35-34,1.34-26.72,0-34.28-1.34c-3.26-.59-5.27-1.55-6-2.89-.3-.59-.44-2.82-.44-6.68q0-15.34.67-46.18t.66-46.4q0-63.21-4.89-100.59c-.3-2.38-.45-3.93-.45-4.68,0-3,2-4.45,6-4.45s10.5.45,19,1.34,15,1.33,19.25,1.33,10.76-.37,19.36-1.11,15.06-1.11,19.37-1.11q5.34,0,5.34,4.45,0,.88-.45,4.23Q989.27,162.25,989.27,219.44Zm5.78-165.36q0,38.73-43.62,38.73-18.69,0-30.93-9.8-13.37-10.68-13.36-28.93,0-17.36,13.8-28.49,12.69-10.23,30.49-10.23,17.36,0,30.05,10.46Q995,37,995.05,54.08Z"/><path class="cls-1" d="M1261.23,119.29q0,16.47-1.56,49.41t-1.56,49.41q0,16,1.12,48.07t1.11,47.85c0,4-1.86,6.53-5.56,7.56q-8.46,2.24-35.84,2.23-24.26,0-33.82-1.33-4.23-.67-5.35-5.35-.66-6.67-1.33-13.35-1.11-10.23-3.12-10.24,3.12,0-22.47,15.14t-46.52,15.13q-59,0-69.88-53.19-4.9-24.7-4.9-71.66,0-50.75,8.24-80.12,2.45-9.13,9.12-9.13,10.23,0,31.16.22t31.16.23c4.59,0,6.9,1.93,6.9,5.78a36,36,0,0,1-.45,4.68,402.63,402.63,0,0,0-4.67,61.42q0,38.73,2.45,53,4,24.48,29.15,24.48,9.8,0,21.25-8.68t11.91-18q.45-8.22.45-111.72,0-7.35,1.11-8.68,1.34-2.22,8-2.22,10.9,0,32.83.22t32.83.22c4.45,0,7,1.11,7.79,3.34A24.23,24.23,0,0,1,1261.23,119.29Z"/><path class="cls-1" d="M1653.6,313.36q0,7.8-6.68,8.68t-32.94.89q-27.15,0-33.82-1.34t-6.68-10.9q0-10.23.67-30.6t.66-30.6q0-39-.89-55.42-1.34-26.49-25.15-26.49-10.45,0-20.8,8.8t-11.47,19.47q-.88,9.35-.89,54.75,0,10.47.67,31.71t.67,31.94q0,7.35-6.46,7.34h-67.43c-4.16,0-6.23-3-6.23-9.12q0-10.46.67-31.38t.66-31.6q0-8.24-.44-24.93t-.45-25.15q0-31.82-24.25-31.83-9.81,0-21.15,7.57-12.46,8.23-12.46,17.36,0,20.25.22,60.54t.22,60.31q0,5.56-1.33,6.9t-6.9,1.78q-10,.88-31.6.89-14,0-31.83-1.34-5.34-.43-6.34-1.55t-1-6.68q0-17.81.22-53.3t.22-53.31q0-36.5-5.34-82.12a26.44,26.44,0,0,1-.45-4,5,5,0,0,1,3.12-5.12q4.89-2,18.47-3.34,16.7-1.56,19.81-2,2.22-.45,17.58-4.68,10.9-3.1,17.58-3.11,4.23,0,4.46,15.46t1.78,15.47a22.51,22.51,0,0,0,5.11-3.11q20-15.58,31.61-21.37a84.66,84.66,0,0,1,37.17-8.23q20.46,0,36.49,9.12,18,10.25,23.37,28.71,11.81-16,32.5-26.93t40.28-10.9q29.37,0,47.85,13.57,20.91,15.36,20.92,43.85,0,11.79-.67,35.49t-.67,35.5q0,14,.67,42.18T1653.6,313.36Z"/><path class="cls-1" d="M460.71,224c6-10.31,12.25-21.51,18.49-33-7.74-11.55-14.42-21.53-22.51-31.49-11.29.9-22,1.76-32.45,1.44-3.81,7-7.65,13.88-11.3,20.18,3,9,6.67,20.1,12.52,34.19,6.78,2.63,16.08,6.23,35.25,8.69"/><path class="cls-1" d="M516.67,115.27c2.81-6.74,4.53-11.68,5.07-14.54-8.13-2.92-19.27-6.93-36.59-6a106.67,106.67,0,0,0-34.89,11,55.35,55.35,0,0,1-3.1,8.88c6.71-.57,15.9-1.35,29.42,4.67,9.72-1.9,23-4.49,40.09-4"/><path class="cls-1" d="M532,292.42A142.35,142.35,0,0,0,550.41,283c2.07-2.88,4.62-6.8,7.48-11.44-4.65,0-11,.06-21.13-7a248.32,248.32,0,0,1-39.25,5.88c-5.19,8.42-9.83,15.53-13.57,20.75,6.91,3.18,8.55,3.93,16.41,5.85A99,99,0,0,0,532,292.42"/><path class="cls-1" d="M582,228.48q1.28-2.47,2.51-4.92c2.29-4.54,4.3-8.66,6-12.32a164.7,164.7,0,0,0-7-36c-4.83-4.16-11.43-9.85-26.77-14.28-3.12,6.64-6.78,14.12-10.93,22.35-1.49,3-3,5.94-4.56,8.93,6,11,11.64,22,17.49,33,7.72.25,16.47.54,23.23,3.22"/><path class="cls-2" d="M531.7,186.05q2.38-4.63,4.7-9.22c4.28-8.47,8.05-16.19,11.26-23-5.37-7.79-13.5-19.56-27.51-31.3a186.44,186.44,0,0,0-40.67,3c-2.84,6.05-6.16,12.86-9.94,20.34-1.36,2.69-2.74,5.41-4.15,8.13,5.85,6.91,10.89,12.88,23.62,31.43,7.08,0,25.87,0,42.69.65"/><path class="cls-2" d="M455.58,150.72c1.3-2.53,2.59-5.05,3.85-7.55,3.5-6.94,6.59-13.26,9.23-18.87-7.19-3.12-15.33-6.65-27.75-5-6.91,3.74-17.36,9.39-27.74,18.24-.73,1.57-1.6,3.35-2.58,5.29-.35.7.37-.71,0,0,2.42,2.53,13,11.54,13,11.54s13.46-1.13,32-3.7"/><path class="cls-2" d="M585.55,247.06l.5-.94.6-1.18c1.2-2.44,2.1-4.39,3.68-8.29,1.62-5.49,3.16-10.67,1.51-17.25-1.39,3-3,6.31-4.87,10l-2,4c.59,4.27,1.57,11.42.64,13.66l0,0"/><path class="cls-2" d="M591.4,233.88c1-2.84,1.77-4.93,2.65-8.06a108.06,108.06,0,0,0,3.15-16.5c.71-10,.74-10.44.47-16.3-.23-2.62-.47-6.13-.81-8.75-1.09-6.2-2.13-12.05-5.31-19.65a66.15,66.15,0,0,1-3.85,11.09,151.25,151.25,0,0,1,5.15,36.4c1.47,7.69,1.47,12.13-1.45,21.77"/><path class="cls-2" d="M596.46,229.34c1-2.84,1.77-4.93,2.65-8.06a108.06,108.06,0,0,0,3.15-16.5c.71-10,.74-10.44.47-16.29-.23-2.63-.47-6.14-.81-8.75-1.09-6.2-2.13-12.06-5.31-19.65a66.77,66.77,0,0,1-3.84,11.08,151.35,151.35,0,0,1,5.14,36.4c1.47,7.69,1.47,12.13-1.45,21.77"/><path class="cls-2" d="M582.79,166.21c2.33-5.64,3.76-9.75,4.2-12.12-3.94-8.28-9.34-19.63-21.81-31.59-6-5.17-15.19-13-31.93-17.87-.54,2.88-2.27,7.88-5.11,14.72a133.65,133.65,0,0,1,27.24,31.38c7.57,2.63,18,6.22,27.41,15.48"/><path class="cls-2" d="M582.42,252.23c.83-1.44,1.71-3,2.58-4.61-1.19-4.18-2.32-8.38-3.51-12.56-3.86-.8-8.24-1.7-22.61-1.11-4.78,8.82-9.6,17.42-14.19,25.34,5.14,3.74,11,8,19,7.51,3.68-2.22,14.88-9,18.69-14.57"/><path class="cls-2" d="M535.76,257.58c5-8.65,10.28-18,15.51-27.7-6.46-10.73-12.63-21.64-19-32.41-8.78-.21-8.78-.21-42.41-.73-6.36,11.73-12.76,23.15-18.86,33.67,5.17,7.47,13.82,20,25.11,31.67a285,285,0,0,0,39.67-4.5"/><path class="cls-1" d="M497.74,270.46l-60.52,10.39,55.55,4.26s3.78,5.41,5.65,3.92,2.87-17.61,2.87-17.61Z"/><path class="cls-1" d="M448.87,185.39,365.14,236.6l60.32-21.32s27.93-3.52,29.79-5,2.87-17.62,2.87-17.62Z"/><polygon class="cls-2" points="503.58 230.51 517.5 238.26 360.17 270.42 470.98 230.41 503.58 230.51"/><text class="cls-3" transform="translate(1765.42 322.93)">Stream</text><path class="cls-2" d="M1735,297.73a27.74,27.74,0,0,1-8.16,20.13A26.7,26.7,0,0,1,1707,326.2a26.42,26.42,0,0,1-19.78-8.4,28.85,28.85,0,0,1,0-40.09,27.69,27.69,0,0,1,39.61,0A27.62,27.62,0,0,1,1735,297.73Z"/></g></g></svg>